<svg xmlns="http://www.w3.org/2000/svg" role="img" aria-labelledby="title desc" viewBox="0 0 550 440">
<title id="title">16-bit build · nested chr20 regions</title><desc id="desc">Historical build receipts: default DuckDB threads and differing output representations. Three-process median latency/range and maximum RSS. LDZip compression excludes SQLite-index construction. The legacy harness did not enforce every declared resource budget; these are scoped measurements, not full STYLE qualification.</desc>
<rect width="550" height="440" fill="#f2f5f4"/>
<g font-family="system-ui,sans-serif" fill="#14202b" font-size="17">
<text x="24" y="30" font-size="21" font-weight="650">16-bit build · nested chr20 regions</text>
<text x="24" y="57" font-size="15">Milliseconds / build, three fresh processes</text>
<path d="M78 315.00 H498" stroke="#cbd5d9"/>
<text x="65" y="320.00" text-anchor="end" font-size="15">0</text>
<path d="M78 269.74 H498" stroke="#cbd5d9"/>
<text x="65" y="274.74" text-anchor="end" font-size="15">200</text>
<path d="M78 224.48 H498" stroke="#cbd5d9"/>
<text x="65" y="229.48" text-anchor="end" font-size="15">400</text>
<path d="M78 179.22 H498" stroke="#cbd5d9"/>
<text x="65" y="184.22" text-anchor="end" font-size="15">600</text>
<path d="M78 133.97 H498" stroke="#cbd5d9"/>
<text x="65" y="138.97" text-anchor="end" font-size="15">800</text>
<text x="78.00" y="341" text-anchor="middle" font-size="15">250</text>
<text x="211.33" y="341" text-anchor="middle" font-size="15">500</text>
<text x="478.00" y="341" text-anchor="middle" font-size="15">1000</text>
<text x="285" y="368" text-anchor="middle">Nested region span (kb; not exact row scaling)</text>
<polyline fill="none" stroke="#8f6200" stroke-width="2.5" points="78.00,267.48 211.33,240.32 478.00,179.22"/>
<path d="M78.00 269.74 V267.48 M73.00 269.74 h10 M73.00 267.48 h10" stroke="#8f6200" stroke-width="1.5"/>
<circle cx="78.00" cy="267.48" r="4.5" fill="#8f6200"/>
<path d="M211.33 242.59 V240.32 M206.33 242.59 h10 M206.33 240.32 h10" stroke="#8f6200" stroke-width="1.5"/>
<circle cx="211.33" cy="240.32" r="4.5" fill="#8f6200"/>
<path d="M478.00 179.22 V176.96 M473.00 179.22 h10 M473.00 176.96 h10" stroke="#8f6200" stroke-width="1.5"/>
<circle cx="478.00" cy="179.22" r="4.5" fill="#8f6200"/>
<path d="M24 395 h20" stroke="#8f6200" stroke-width="3"/><text x="50" y="400" font-size="14">DuckDB build</text>
<polyline fill="none" stroke="#2458a6" stroke-width="2.5" points="78.00,283.32 211.33,242.59 478.00,133.97"/>
<path d="M78.00 283.32 V281.06 M73.00 283.32 h10 M73.00 281.06 h10" stroke="#2458a6" stroke-width="1.5"/>
<circle cx="78.00" cy="283.32" r="4.5" fill="#2458a6"/>
<path d="M211.33 242.59 V240.32 M206.33 242.59 h10 M206.33 240.32 h10" stroke="#2458a6" stroke-width="1.5"/>
<circle cx="211.33" cy="242.59" r="4.5" fill="#2458a6"/>
<path d="M478.00 133.97 V133.97 M473.00 133.97 h10 M473.00 133.97 h10" stroke="#2458a6" stroke-width="1.5"/>
<circle cx="478.00" cy="133.97" r="4.5" fill="#2458a6"/>
<path d="M284 395 h20" stroke="#2458a6" stroke-width="3"/><text x="310" y="400" font-size="14">LDZip compress</text>
</g></svg>
