<svg xmlns="http://www.w3.org/2000/svg" role="img" aria-labelledby="title desc" viewBox="0 0 550 440">
<title id="title">8-bit matrices · 4 SQL threads</title><desc id="desc">SQL and TinyCC retain SQL lists; LDZip returns an R matrix. These representations differ. Red crosses mark failed resource qualification; failed timings are not shown. Three fresh processes, at least five measured seconds each; whiskers are ranges of process-average latencies.</desc>
<rect width="550" height="440" fill="#f2f5f4"/>
<g font-family="system-ui,sans-serif" fill="#14202b" font-size="17">
<text x="24" y="30" font-size="21" font-weight="650">8-bit matrices · 4 SQL threads</text>
<text x="24" y="57" font-size="15">Milliseconds / operation · lower is better</text>
<path d="M78 315.00 H498" stroke="#cbd5d9"/>
<text x="65" y="320.00" text-anchor="end" font-size="15">0</text>
<path d="M78 274.93 H498" stroke="#cbd5d9"/>
<text x="65" y="279.93" text-anchor="end" font-size="15">100</text>
<path d="M78 234.87 H498" stroke="#cbd5d9"/>
<text x="65" y="239.87" text-anchor="end" font-size="15">200</text>
<path d="M78 194.80 H498" stroke="#cbd5d9"/>
<text x="65" y="199.80" text-anchor="end" font-size="15">300</text>
<path d="M78 154.73 H498" stroke="#cbd5d9"/>
<text x="65" y="159.73" text-anchor="end" font-size="15">400</text>
<path d="M78 114.67 H498" stroke="#cbd5d9"/>
<text x="65" y="119.67" text-anchor="end" font-size="15">500</text>
<text x="78.00" y="341" text-anchor="middle" font-size="15">1000</text>
<text x="211.33" y="341" text-anchor="middle" font-size="15">2000</text>
<text x="478.00" y="341" text-anchor="middle" font-size="15">4000</text>
<text x="285" y="368" text-anchor="middle">Requested variants per matrix axis</text>
<path d="M78.00 275.74 V274.58 M73.00 275.74 h10 M73.00 274.58 h10" stroke="#8f6200" stroke-width="1.5"/>
<circle cx="78.00" cy="275.53" r="4.5" fill="#8f6200"/>
<text x="211.33" y="97.00" fill="#ad3028" text-anchor="middle" font-size="15">× fail</text>
<text x="478.00" y="97.00" fill="#ad3028" text-anchor="middle" font-size="15">× fail</text>
<path d="M24 395 h20" stroke="#8f6200" stroke-width="3"/><text x="50" y="400" font-size="14">SQL grid</text>
<polyline fill="none" stroke="#2458a6" stroke-width="2.5" points="78.00,302.69 211.33,266.44 478.00,134.27"/>
<path d="M78.00 302.71 V302.62 M73.00 302.71 h10 M73.00 302.62 h10" stroke="#2458a6" stroke-width="1.5"/>
<circle cx="78.00" cy="302.69" r="4.5" fill="#2458a6"/>
<path d="M211.33 266.74 V266.34 M206.33 266.74 h10 M206.33 266.34 h10" stroke="#2458a6" stroke-width="1.5"/>
<circle cx="211.33" cy="266.44" r="4.5" fill="#2458a6"/>
<path d="M478.00 134.50 V133.97 M473.00 134.50 h10 M473.00 133.97 h10" stroke="#2458a6" stroke-width="1.5"/>
<circle cx="478.00" cy="134.27" r="4.5" fill="#2458a6"/>
<path d="M284 395 h20" stroke="#2458a6" stroke-width="3"/><text x="310" y="400" font-size="14">TinyCC SQL matrix</text>
<polyline fill="none" stroke="#1b744a" stroke-width="2.5" points="78.00,313.45 211.33,309.19 478.00,284.45"/>
<path d="M78.00 313.47 V313.44 M73.00 313.47 h10 M73.00 313.44 h10" stroke="#1b744a" stroke-width="1.5"/>
<circle cx="78.00" cy="313.45" r="4.5" fill="#1b744a"/>
<path d="M211.33 309.20 V309.14 M206.33 309.20 h10 M206.33 309.14 h10" stroke="#1b744a" stroke-width="1.5"/>
<circle cx="211.33" cy="309.19" r="4.5" fill="#1b744a"/>
<path d="M478.00 284.48 V284.32 M473.00 284.48 h10 M473.00 284.32 h10" stroke="#1b744a" stroke-width="1.5"/>
<circle cx="478.00" cy="284.45" r="4.5" fill="#1b744a"/>
<path d="M24 416 h20" stroke="#1b744a" stroke-width="3"/><text x="50" y="421" font-size="14">LDZip R matrix</text>
</g></svg>
